<svg width="12" height="33" viewBox="0 0 12 33" fill="none" xmlns="http://www.w3.org/2000/svg">
<path d="M6.75 1C6.75 0.585786 6.41421 0.25 6 0.25C5.58579 0.25 5.25 0.585786 5.25 1H6.75ZM5.46967 32.5303C5.76256 32.8232 6.23744 32.8232 6.53033 32.5303L11.3033 27.7574C11.5962 27.4645 11.5962 26.9896 11.3033 26.6967C11.0104 26.4038 10.5355 26.4038 10.2426 26.6967L6 30.9393L1.75736 26.6967C1.46447 26.4038 0.989592 26.4038 0.696699 26.6967C0.403806 26.9896 0.403806 27.4645 0.696699 27.7574L5.46967 32.5303ZM5.25 1V32H6.75V1H5.25Z" fill="url(#paint0_linear)"/>
<defs>
<linearGradient id="paint0_linear" x1="6.5" y1="1" x2="6.5" y2="32" gradientUnits="userSpaceOnUse">
<stop stop-color="#0A75FF"/>
<stop offset="1" stop-color="#12E1FF"/>
</linearGradient>
</defs>
</svg>
