<svg width="68" height="30" viewBox="0 0 68 30" fill="none" xmlns="http://www.w3.org/2000/svg">
<path d="M9.21356 12.2116H3.58203V0.328125H9.48317C11.1606 0.328125 12.1941 1.87356 12.1941 3.359C12.1941 4.52935 11.58 5.63969 10.4867 6.11983C11.8346 6.52495 12.6883 7.68027 12.6883 9.15071C12.6883 10.9963 11.1157 12.2116 9.21356 12.2116ZM5.09475 1.6335V5.59467H8.86908C9.91751 5.59467 10.7113 4.7094 10.7113 3.61407C10.7113 2.48874 9.97741 1.61851 8.97391 1.61851H5.09475V1.6335ZM9.33338 6.82502H5.09475V10.9062H9.22855C10.3369 10.9062 11.1906 9.94595 11.1906 8.88064C11.1756 7.80032 10.3818 6.82502 9.33338 6.82502Z" fill="white"/>
<path d="M13.9912 7.84542C13.9912 5.3847 15.8334 3.3291 18.4545 3.3291C21.0905 3.3291 22.813 5.4447 22.813 7.78539C22.813 8.02546 22.798 8.25053 22.783 8.35557H15.5489C15.6837 10.0811 16.9717 11.2814 18.4845 11.2814C19.5479 11.2814 20.6113 10.6962 20.9707 9.82599L22.2438 10.1711C21.6747 11.4615 20.1919 12.3768 18.4395 12.3768C15.8185 12.3768 13.9912 10.3061 13.9912 7.84542ZM21.435 7.26025C21.2853 5.57976 20.0122 4.42442 18.4545 4.42442C16.8968 4.42442 15.6238 5.59476 15.5189 7.26025H21.435Z" fill="white"/>
<path d="M28.8788 11.777C28.5044 11.9421 27.6956 12.3322 26.752 12.3322C25.6886 12.3322 24.775 11.762 24.775 10.5016V4.61992H23.5918V3.46457H24.775V0.553711H26.2428V3.46457H28.2049V4.61992H26.2428V10.0515C26.2728 10.6817 26.7071 10.9668 27.2313 10.9668C27.8154 10.9668 28.3546 10.6967 28.5194 10.5917L28.8788 11.777Z" fill="white"/>
<path d="M34.6298 11.777C34.2554 11.9421 33.4466 12.3322 32.503 12.3322C31.4396 12.3322 30.526 11.762 30.526 10.5016V4.61992H29.3428V3.46457H30.526V0.553711H31.9938V3.46457H33.9558V4.61992H31.9938V10.0515C32.0237 10.6817 32.4581 10.9668 32.9823 10.9668C33.5664 10.9668 34.1056 10.6967 34.2704 10.5917L34.6298 11.777Z" fill="white"/>
<path d="M35.3486 7.84542C35.3486 5.3847 37.1909 3.3291 39.8119 3.3291C42.448 3.3291 44.1704 5.4447 44.1704 7.78539C44.1704 8.02546 44.1554 8.25053 44.1404 8.35557H36.9063C37.0411 10.0811 38.3292 11.2814 39.8419 11.2814C40.9053 11.2814 41.9687 10.6962 42.3281 9.82599L43.6012 10.1711C43.0321 11.4615 41.5493 12.3768 39.7969 12.3768C37.1759 12.3768 35.3486 10.3061 35.3486 7.84542ZM42.7924 7.26025C42.6427 5.57976 41.3696 4.42442 39.8119 4.42442C38.2543 4.42442 36.9812 5.59476 36.8763 7.26025H42.7924Z" fill="white"/>
<path d="M50.4012 4.76933C48.9334 4.79934 47.7202 5.54956 47.2559 6.82493V12.2115H45.7881V3.47895H47.166V5.50456C47.7651 4.3042 48.8136 3.41895 49.9219 3.41895C50.1316 3.41895 50.2963 3.41894 50.4012 3.43394V4.76933Z" fill="white"/>
<path d="M0.0771484 28.1316L0.766098 27.1413C1.08062 27.4264 1.51498 27.5314 1.91937 27.5314C2.63829 27.5314 3.32725 26.9313 3.32725 26.106V16.9833H4.79504V26.001C4.79504 27.6515 3.50698 28.8368 2.08412 28.8368C1.30529 28.8368 0.616337 28.6118 0.0771484 28.1316ZM3.31226 15.3329V13.4873H4.78007V15.3329H3.31226Z" fill="white"/>
<path d="M6.54688 21.3643C6.54688 18.9186 8.35916 16.833 10.9353 16.833C13.5414 16.833 15.3536 18.9186 15.3536 21.3643C15.3536 23.795 13.5713 25.8807 10.9353 25.8807C8.31423 25.8807 6.54688 23.795 6.54688 21.3643ZM10.9353 24.6203C12.5379 24.6203 13.8409 23.1799 13.8409 21.3493C13.8409 19.5338 12.5379 18.1084 10.9353 18.1084C9.34767 18.1084 8.04462 19.5638 8.04462 21.3943C8.04462 23.2099 9.3327 24.6203 10.9353 24.6203Z" fill="white"/>
<path d="M17.002 22.22V16.9834H18.4698V21.9349C18.4698 23.7204 19.0838 24.6206 20.327 24.6206C21.5252 24.6206 22.6784 23.7954 23.2026 22.46V16.9834H24.6705V23.9154C24.6705 24.2905 24.8052 24.4406 25.1348 24.4556V25.731C24.8801 25.761 24.7004 25.791 24.5506 25.791C23.8766 25.791 23.4872 25.4459 23.4423 24.9057L23.3974 23.8554C22.6335 25.1608 21.2706 25.896 19.7728 25.896C17.9605 25.881 17.002 24.6357 17.002 22.22Z" fill="white"/>
<path d="M31.784 18.2732C30.3162 18.3032 29.103 19.0535 28.6387 20.3288V25.7154H27.1709V16.9829H28.5488V19.0085C29.1479 17.8081 30.1963 16.9229 31.3047 16.9229C31.5293 16.9229 31.6791 16.9228 31.784 16.9378V18.2732Z" fill="white"/>
<path d="M40.7863 25.716H39.3185V20.8245C39.3185 18.964 38.7493 18.1388 37.5961 18.1388C36.3979 18.1388 35.0949 19.114 34.6905 20.4344V25.701H33.2227V16.9684H34.5557V18.844C35.2446 17.6286 36.6375 16.8184 38.1802 16.8184C40.2022 16.8184 40.7863 18.3788 40.7863 20.4794V25.716Z" fill="white"/>
<path d="M42.4639 21.3493C42.4639 18.8886 44.3061 16.833 46.9272 16.833C49.5632 16.833 51.2856 18.9486 51.2856 21.2893C51.2856 21.5294 51.2707 21.7544 51.2557 21.8595H44.0215C44.1563 23.585 45.4444 24.7853 46.9571 24.7853C48.0205 24.7853 49.0839 24.2002 49.4434 23.3299L50.7165 23.675C50.1474 24.9654 48.6646 25.8807 46.9122 25.8807C44.2761 25.8807 42.4639 23.8101 42.4639 21.3493ZM49.8927 20.7642C49.743 19.0837 48.4699 17.9283 46.9122 17.9283C45.3545 17.9283 44.0815 19.0987 43.9766 20.7642H49.8927Z" fill="white"/>
<path d="M53.0072 28.1167C53.3067 28.1467 53.5763 28.1617 53.8159 28.1617C54.2203 28.1617 54.475 27.9666 55.3137 25.716L51.6143 16.9834H53.142L56.1225 24.3956L58.8334 16.9834H60.2413L55.9577 28.0117C55.5533 29.047 54.7745 29.4821 53.756 29.4821C53.5014 29.4821 53.2618 29.4671 53.0221 29.3921V28.1167H53.0072Z" fill="white"/>
<path d="M60.7207 24.6206L61.3498 23.6304C62.3682 24.3956 63.3867 24.8007 64.51 24.8007C65.7681 24.8007 66.5769 24.2605 66.5769 23.3603C66.5769 22.49 65.7981 22.2349 64.1206 21.8298C62.0088 21.3047 61.1251 20.9146 61.1251 19.5342C61.1251 17.7786 62.6079 16.8184 64.4651 16.8184C65.7681 16.8184 66.9513 17.2835 67.7452 17.9737L67.0712 18.859C66.3373 18.1988 65.3787 17.8837 64.4351 17.8837C63.3717 17.8837 62.518 18.3188 62.518 19.3241C62.518 20.1493 63.0872 20.3294 64.5699 20.6895C66.8914 21.2447 67.9998 21.7098 67.9998 23.1952C67.9998 24.8157 66.6518 25.851 64.54 25.851C63.162 25.881 61.6942 25.4309 60.7207 24.6206Z" fill="white"/>
</svg>
