<svg width="296" height="189" viewBox="0 0 296 189" fill="none" xmlns="http://www.w3.org/2000/svg">
<g filter="url(#filter0_d)">
<rect x="10.1719" y="8" width="185.787" height="166" fill="#F8F9FB"/>
</g>
<g filter="url(#filter1_d)">
<rect x="10" y="6.91797" width="54.8678" height="167.138" rx="3" fill="white"/>
<rect x="10.5" y="7.41797" width="53.8678" height="166.138" rx="2.5" stroke="#D6D6D6"/>
</g>
<rect x="19.5806" y="13.5723" width="17.6745" height="1.26089" rx="0.630444" fill="#BDBDBD"/>
<rect x="19.5806" y="55.0625" width="17.6745" height="1.26089" rx="0.630444" fill="#BDBDBD"/>
<rect x="25.6763" y="20.2266" width="17.6745" height="1.26089" rx="0.630444" fill="#BDBDBD"/>
<rect x="25.6763" y="24.5312" width="17.6745" height="1.26089" rx="0.630444" fill="#BDBDBD"/>
<rect x="25.6763" y="28.8379" width="17.6745" height="1.26089" rx="0.630444" fill="#BDBDBD"/>
<rect x="25.6763" y="33.1426" width="17.6745" height="1.26089" rx="0.630444" fill="#BDBDBD"/>
<rect x="25.6763" y="37.4492" width="17.6745" height="1.26089" rx="0.630444" fill="#BDBDBD"/>
<rect x="25.6763" y="61.3262" width="17.6745" height="1.26089" rx="0.630444" fill="#BDBDBD"/>
<rect x="25.6763" y="65.6309" width="17.6745" height="1.26089" rx="0.630444" fill="#BDBDBD"/>
<rect x="25.6763" y="69.9375" width="17.6745" height="1.26089" rx="0.630444" fill="#BDBDBD"/>
<g filter="url(#filter2_d)">
<rect x="79.2378" y="20.2266" width="205.972" height="16.0484" rx="3" fill="white"/>
<rect x="79.7378" y="20.7266" width="204.972" height="15.0484" rx="2.5" stroke="#D6D6D6"/>
</g>
<rect x="79.2378" y="20.2266" width="205.972" height="3.13139" rx="1.56569" fill="#56CCF2"/>
<ellipse cx="86.424" cy="27.5198" rx="2.02851" ry="1.81278" fill="#0DA8FF"/>
<path d="M86.4237 29.4805C84.8605 29.4805 83.5933 30.6196 83.5933 32.0247H89.2542C89.2542 30.6196 87.987 29.4805 86.4237 29.4805Z" fill="#0DA8FF"/>
<rect x="173.297" y="28.8379" width="17.6745" height="1.26089" rx="0.630444" fill="#BDBDBD"/>
<rect x="231.213" y="28.8379" width="17.6745" height="1.26089" rx="0.630444" fill="#BDBDBD"/>
<rect x="259.517" y="28.8379" width="17.6745" height="1.26089" rx="0.630444" fill="#BDBDBD"/>
<g filter="url(#filter3_d)">
<rect x="79.2378" y="40.1895" width="205.972" height="16.0484" rx="3" fill="white"/>
<rect x="79.7378" y="40.6895" width="204.972" height="15.0484" rx="2.5" stroke="#D6D6D6"/>
</g>
<rect x="79.2378" y="40.1895" width="205.972" height="3.13139" rx="1.56569" fill="#56CCF2"/>
<ellipse cx="86.424" cy="47.4807" rx="2.02851" ry="1.81278" fill="#0DA8FF"/>
<path d="M86.4237 49.4414C84.8605 49.4414 83.5933 50.5805 83.5933 51.9857H89.2542C89.2542 50.5805 87.987 49.4414 86.4237 49.4414Z" fill="#0DA8FF"/>
<rect x="173.297" y="48.8008" width="17.6745" height="1.26089" rx="0.630444" fill="#BDBDBD"/>
<rect x="231.213" y="48.8008" width="17.6745" height="1.26089" rx="0.630444" fill="#BDBDBD"/>
<rect x="259.517" y="48.8008" width="17.6745" height="1.26089" rx="0.630444" fill="#BDBDBD"/>
<g filter="url(#filter4_d)">
<rect x="79.2378" y="60.1523" width="205.972" height="16.0484" rx="3" fill="white"/>
<rect x="79.7378" y="60.6523" width="204.972" height="15.0484" rx="2.5" stroke="#D6D6D6"/>
</g>
<rect x="79.2378" y="60.1523" width="205.972" height="3.13139" rx="1.56569" fill="#56CCF2"/>
<ellipse cx="86.424" cy="67.4436" rx="2.02851" ry="1.81278" fill="#0DA8FF"/>
<path d="M86.4237 69.4043C84.8605 69.4043 83.5933 70.5434 83.5933 71.9485H89.2542C89.2542 70.5434 87.987 69.4043 86.4237 69.4043Z" fill="#0DA8FF"/>
<rect x="173.297" y="68.7617" width="17.6745" height="1.26089" rx="0.630444" fill="#BDBDBD"/>
<rect x="231.213" y="68.7617" width="17.6745" height="1.26089" rx="0.630444" fill="#BDBDBD"/>
<rect x="259.517" y="68.7617" width="17.6745" height="1.26089" rx="0.630444" fill="#BDBDBD"/>
<g filter="url(#filter5_d)">
<rect x="79.2378" y="80.1133" width="205.972" height="16.0484" rx="3" fill="white"/>
<rect x="79.7378" y="80.6133" width="204.972" height="15.0484" rx="2.5" stroke="#D6D6D6"/>
</g>
<rect x="79.2378" y="80.1133" width="205.972" height="3.13139" rx="1.56569" fill="#56CCF2"/>
<ellipse cx="86.424" cy="87.4065" rx="2.02851" ry="1.81278" fill="#0DA8FF"/>
<path d="M86.4237 89.3672C84.8605 89.3672 83.5933 90.5063 83.5933 91.9114H89.2542C89.2542 90.5063 87.987 89.3672 86.4237 89.3672Z" fill="#0DA8FF"/>
<rect x="173.297" y="88.7246" width="17.6745" height="1.26089" rx="0.630444" fill="#EB5757"/>
<rect x="231.213" y="88.7246" width="17.6745" height="1.26089" rx="0.630444" fill="#BDBDBD"/>
<rect x="259.517" y="88.7246" width="17.6745" height="1.26089" rx="0.630444" fill="#BDBDBD"/>
<g filter="url(#filter6_d)">
<rect x="79.2378" y="100.076" width="205.972" height="16.0484" rx="3" fill="white"/>
<rect x="79.7378" y="100.576" width="204.972" height="15.0484" rx="2.5" stroke="#D6D6D6"/>
</g>
<rect x="79.2378" y="100.076" width="205.972" height="3.13139" rx="1.56569" fill="#56CCF2"/>
<ellipse cx="86.424" cy="107.369" rx="2.02851" ry="1.81278" fill="#0DA8FF"/>
<path d="M86.4237 109.33C84.8605 109.33 83.5933 110.469 83.5933 111.874H89.2542C89.2542 110.469 87.987 109.33 86.4237 109.33Z" fill="#0DA8FF"/>
<rect x="173.297" y="108.688" width="17.6745" height="1.26089" rx="0.630444" fill="#BDBDBD"/>
<rect x="231.213" y="108.688" width="17.6745" height="1.26089" rx="0.630444" fill="#BDBDBD"/>
<rect x="259.517" y="108.688" width="17.6745" height="1.26089" rx="0.630444" fill="#BDBDBD"/>
<g filter="url(#filter7_d)">
<rect x="79.2378" y="120.039" width="205.972" height="16.0484" rx="3" fill="white"/>
<rect x="79.7378" y="120.539" width="204.972" height="15.0484" rx="2.5" stroke="#D6D6D6"/>
</g>
<rect x="79.2378" y="120.039" width="205.972" height="3.13139" rx="1.56569" fill="#56CCF2"/>
<ellipse cx="86.424" cy="127.332" rx="2.02851" ry="1.81278" fill="#0DA8FF"/>
<path d="M86.4237 129.293C84.8605 129.293 83.5933 130.432 83.5933 131.837H89.2542C89.2542 130.432 87.987 129.293 86.4237 129.293Z" fill="#0DA8FF"/>
<rect x="173.297" y="128.65" width="17.6745" height="1.26089" rx="0.630444" fill="#EB5757"/>
<rect x="231.213" y="128.65" width="17.6745" height="1.26089" rx="0.630444" fill="#BDBDBD"/>
<rect x="259.517" y="128.65" width="17.6745" height="1.26089" rx="0.630444" fill="#BDBDBD"/>
<g filter="url(#filter8_d)">
<rect x="79.2378" y="140.002" width="205.972" height="16.0484" rx="3" fill="white"/>
<rect x="79.7378" y="140.502" width="204.972" height="15.0484" rx="2.5" stroke="#D6D6D6"/>
</g>
<rect x="79.2378" y="140.002" width="205.972" height="3.13139" rx="1.56569" fill="#56CCF2"/>
<ellipse cx="86.424" cy="147.295" rx="2.02851" ry="1.81278" fill="#0DA8FF"/>
<path d="M86.4237 149.256C84.8605 149.256 83.5933 150.395 83.5933 151.8H89.2542C89.2542 150.395 87.987 149.256 86.4237 149.256Z" fill="#0DA8FF"/>
<rect x="173.297" y="148.613" width="17.6745" height="1.26089" rx="0.630444" fill="#EB5757"/>
<rect x="231.213" y="148.613" width="17.6745" height="1.26089" rx="0.630444" fill="#BDBDBD"/>
<rect x="259.517" y="148.613" width="17.6745" height="1.26089" rx="0.630444" fill="#BDBDBD"/>
<defs>
<filter id="filter0_d" x="6.17188" y="4" width="201.787" height="182" filterUnits="userSpaceOnUse" color-interpolation-filters="sRGB">
<feFlood flood-opacity="0" result="BackgroundImageFix"/>
<feColorMatrix in="SourceAlpha" type="matrix" values="0 0 0 0 0 0 0 0 0 0 0 0 0 0 0 0 0 0 127 0"/>
<feOffset dx="4" dy="4"/>
<feGaussianBlur stdDeviation="4"/>
<feColorMatrix type="matrix" values="0 0 0 0 0 0 0 0 0 0 0 0 0 0 0 0 0 0 0.25 0"/>
<feBlend mode="normal" in2="BackgroundImageFix" result="effect1_dropShadow"/>
<feBlend mode="normal" in="SourceGraphic" in2="effect1_dropShadow" result="shape"/>
</filter>
<filter id="filter1_d" x="0" y="0.917969" width="74.8678" height="187.138" filterUnits="userSpaceOnUse" color-interpolation-filters="sRGB">
<feFlood flood-opacity="0" result="BackgroundImageFix"/>
<feColorMatrix in="SourceAlpha" type="matrix" values="0 0 0 0 0 0 0 0 0 0 0 0 0 0 0 0 0 0 127 0"/>
<feOffset dy="4"/>
<feGaussianBlur stdDeviation="5"/>
<feColorMatrix type="matrix" values="0 0 0 0 0 0 0 0 0 0 0 0 0 0 0 0 0 0 0.15 0"/>
<feBlend mode="normal" in2="BackgroundImageFix" result="effect1_dropShadow"/>
<feBlend mode="normal" in="SourceGraphic" in2="effect1_dropShadow" result="shape"/>
</filter>
<filter id="filter2_d" x="69.2378" y="14.2266" width="225.972" height="36.0484" filterUnits="userSpaceOnUse" color-interpolation-filters="sRGB">
<feFlood flood-opacity="0" result="BackgroundImageFix"/>
<feColorMatrix in="SourceAlpha" type="matrix" values="0 0 0 0 0 0 0 0 0 0 0 0 0 0 0 0 0 0 127 0"/>
<feOffset dy="4"/>
<feGaussianBlur stdDeviation="5"/>
<feColorMatrix type="matrix" values="0 0 0 0 0 0 0 0 0 0 0 0 0 0 0 0 0 0 0.15 0"/>
<feBlend mode="normal" in2="BackgroundImageFix" result="effect1_dropShadow"/>
<feBlend mode="normal" in="SourceGraphic" in2="effect1_dropShadow" result="shape"/>
</filter>
<filter id="filter3_d" x="69.2378" y="34.1895" width="225.972" height="36.0484" filterUnits="userSpaceOnUse" color-interpolation-filters="sRGB">
<feFlood flood-opacity="0" result="BackgroundImageFix"/>
<feColorMatrix in="SourceAlpha" type="matrix" values="0 0 0 0 0 0 0 0 0 0 0 0 0 0 0 0 0 0 127 0"/>
<feOffset dy="4"/>
<feGaussianBlur stdDeviation="5"/>
<feColorMatrix type="matrix" values="0 0 0 0 0 0 0 0 0 0 0 0 0 0 0 0 0 0 0.15 0"/>
<feBlend mode="normal" in2="BackgroundImageFix" result="effect1_dropShadow"/>
<feBlend mode="normal" in="SourceGraphic" in2="effect1_dropShadow" result="shape"/>
</filter>
<filter id="filter4_d" x="69.2378" y="54.1523" width="225.972" height="36.0484" filterUnits="userSpaceOnUse" color-interpolation-filters="sRGB">
<feFlood flood-opacity="0" result="BackgroundImageFix"/>
<feColorMatrix in="SourceAlpha" type="matrix" values="0 0 0 0 0 0 0 0 0 0 0 0 0 0 0 0 0 0 127 0"/>
<feOffset dy="4"/>
<feGaussianBlur stdDeviation="5"/>
<feColorMatrix type="matrix" values="0 0 0 0 0 0 0 0 0 0 0 0 0 0 0 0 0 0 0.15 0"/>
<feBlend mode="normal" in2="BackgroundImageFix" result="effect1_dropShadow"/>
<feBlend mode="normal" in="SourceGraphic" in2="effect1_dropShadow" result="shape"/>
</filter>
<filter id="filter5_d" x="69.2378" y="74.1133" width="225.972" height="36.0484" filterUnits="userSpaceOnUse" color-interpolation-filters="sRGB">
<feFlood flood-opacity="0" result="BackgroundImageFix"/>
<feColorMatrix in="SourceAlpha" type="matrix" values="0 0 0 0 0 0 0 0 0 0 0 0 0 0 0 0 0 0 127 0"/>
<feOffset dy="4"/>
<feGaussianBlur stdDeviation="5"/>
<feColorMatrix type="matrix" values="0 0 0 0 0 0 0 0 0 0 0 0 0 0 0 0 0 0 0.15 0"/>
<feBlend mode="normal" in2="BackgroundImageFix" result="effect1_dropShadow"/>
<feBlend mode="normal" in="SourceGraphic" in2="effect1_dropShadow" result="shape"/>
</filter>
<filter id="filter6_d" x="69.2378" y="94.0762" width="225.972" height="36.0484" filterUnits="userSpaceOnUse" color-interpolation-filters="sRGB">
<feFlood flood-opacity="0" result="BackgroundImageFix"/>
<feColorMatrix in="SourceAlpha" type="matrix" values="0 0 0 0 0 0 0 0 0 0 0 0 0 0 0 0 0 0 127 0"/>
<feOffset dy="4"/>
<feGaussianBlur stdDeviation="5"/>
<feColorMatrix type="matrix" values="0 0 0 0 0 0 0 0 0 0 0 0 0 0 0 0 0 0 0.15 0"/>
<feBlend mode="normal" in2="BackgroundImageFix" result="effect1_dropShadow"/>
<feBlend mode="normal" in="SourceGraphic" in2="effect1_dropShadow" result="shape"/>
</filter>
<filter id="filter7_d" x="69.2378" y="114.039" width="225.972" height="36.0484" filterUnits="userSpaceOnUse" color-interpolation-filters="sRGB">
<feFlood flood-opacity="0" result="BackgroundImageFix"/>
<feColorMatrix in="SourceAlpha" type="matrix" values="0 0 0 0 0 0 0 0 0 0 0 0 0 0 0 0 0 0 127 0"/>
<feOffset dy="4"/>
<feGaussianBlur stdDeviation="5"/>
<feColorMatrix type="matrix" values="0 0 0 0 0 0 0 0 0 0 0 0 0 0 0 0 0 0 0.15 0"/>
<feBlend mode="normal" in2="BackgroundImageFix" result="effect1_dropShadow"/>
<feBlend mode="normal" in="SourceGraphic" in2="effect1_dropShadow" result="shape"/>
</filter>
<filter id="filter8_d" x="69.2378" y="134.002" width="225.972" height="36.0484" filterUnits="userSpaceOnUse" color-interpolation-filters="sRGB">
<feFlood flood-opacity="0" result="BackgroundImageFix"/>
<feColorMatrix in="SourceAlpha" type="matrix" values="0 0 0 0 0 0 0 0 0 0 0 0 0 0 0 0 0 0 127 0"/>
<feOffset dy="4"/>
<feGaussianBlur stdDeviation="5"/>
<feColorMatrix type="matrix" values="0 0 0 0 0 0 0 0 0 0 0 0 0 0 0 0 0 0 0.15 0"/>
<feBlend mode="normal" in2="BackgroundImageFix" result="effect1_dropShadow"/>
<feBlend mode="normal" in="SourceGraphic" in2="effect1_dropShadow" result="shape"/>
</filter>
</defs>
</svg>
