<svg width="238" height="428" viewBox="0 0 238 428" fill="none" xmlns="http://www.w3.org/2000/svg">
<mask id="mask0" mask-type="alpha" maskUnits="userSpaceOnUse" x="0" y="0" width="238" height="428">
<rect width="238" height="428" fill="white"/>
</mask>
<g mask="url(#mask0)">
<path d="M146.567 -175L-429.999 259.473L-423.847 269.776L152.718 -164.697L146.567 -175Z" fill="white"/>
<path d="M162.222 -148.778L-414.343 285.695L-408.191 295.998L168.374 -138.474L162.222 -148.778Z" fill="white"/>
<path d="M177.871 -122.567L-398.694 311.906L-392.542 322.209L184.023 -112.264L177.871 -122.567Z" fill="white"/>
<path d="M193.521 -96.3572L-383.044 338.116L-376.892 348.419L199.673 -86.0541L193.521 -96.3572Z" fill="white"/>
<path d="M209.171 -70.1473L-367.394 364.326L-361.243 374.629L215.322 -59.8441L209.171 -70.1473Z" fill="white"/>
<path d="M224.821 -43.9368L-351.744 390.536L-345.592 400.839L230.973 -33.6337L224.821 -43.9368Z" fill="white"/>
<path d="M240.47 -17.7269L-336.095 416.746L-329.943 427.049L246.622 -7.4237L240.47 -17.7269Z" fill="white"/>
<path d="M256.127 8.49579L-320.438 442.969L-314.286 453.272L262.279 18.799L256.127 8.49579Z" fill="white"/>
<path d="M271.776 34.7058L-304.789 469.179L-298.638 479.482L277.927 45.0089L271.776 34.7058Z" fill="white"/>
<path d="M287.426 60.9162L-289.139 495.389L-282.987 505.692L293.578 71.2194L287.426 60.9162Z" fill="white"/>
<path d="M303.075 87.1262L-273.49 521.599L-267.338 531.902L309.227 97.4293L303.075 87.1262Z" fill="white"/>
<path d="M318.726 113.337L-257.839 547.81L-251.687 558.113L324.878 123.64L318.726 113.337Z" fill="white"/>
<path d="M334.374 139.547L-242.191 574.02L-236.039 584.323L340.526 149.85L334.374 139.547Z" fill="white"/>
<path d="M350.031 165.769L-226.534 600.242L-220.382 610.545L356.183 176.072L350.031 165.769Z" fill="white"/>
<path d="M365.682 191.98L-210.883 626.453L-204.731 636.756L371.834 202.283L365.682 191.98Z" fill="white"/>
<path d="M381.331 218.19L-195.234 652.663L-189.082 662.966L387.483 228.493L381.331 218.19Z" fill="white"/>
<path d="M396.979 244.4L-179.586 678.873L-173.434 689.176L403.131 254.703L396.979 244.4Z" fill="white"/>
<path d="M412.629 270.61L-163.936 705.083L-157.784 715.386L418.781 280.913L412.629 270.61Z" fill="white"/>
<path d="M428.279 296.82L-148.286 731.292L-142.134 741.596L434.431 307.123L428.279 296.82Z" fill="white"/>
<path d="M443.936 323.043L-132.629 757.516L-126.477 767.819L450.088 333.346L443.936 323.043Z" fill="white"/>
<path d="M459.585 349.252L-116.98 783.725L-110.828 794.028L465.737 359.555L459.585 349.252Z" fill="white"/>
<path d="M475.235 375.463L-101.33 809.936L-95.1779 820.239L481.387 385.766L475.235 375.463Z" fill="white"/>
<path d="M490.885 401.673L-85.6805 836.146L-79.5287 846.449L497.036 411.976L490.885 401.673Z" fill="white"/>
<path d="M506.535 427.883L-70.0303 862.356L-63.8785 872.659L512.687 438.186L506.535 427.883Z" fill="white"/>
</g>
</svg>
