<svg width="238" height="428" viewBox="0 0 238 428" fill="none" xmlns="http://www.w3.org/2000/svg">
<mask id="mask0" mask-type="alpha" maskUnits="userSpaceOnUse" x="0" y="0" width="238" height="428">
<rect width="238" height="428" fill="#C4C4C4"/>
</mask>
<g mask="url(#mask0)">
<path d="M146.566 -175L-429.999 259.473L-423.847 269.776L152.718 -164.697L146.566 -175Z" fill="url(#paint0_linear)"/>
<path d="M162.222 -148.778L-414.343 285.695L-408.191 295.998L168.374 -138.474L162.222 -148.778Z" fill="url(#paint1_linear)"/>
<path d="M177.871 -122.567L-398.694 311.906L-392.543 322.209L184.023 -112.264L177.871 -122.567Z" fill="url(#paint2_linear)"/>
<path d="M193.521 -96.3572L-383.044 338.116L-376.892 348.419L199.673 -86.0541L193.521 -96.3572Z" fill="url(#paint3_linear)"/>
<path d="M209.171 -70.1473L-367.395 364.326L-361.243 374.629L215.322 -59.8441L209.171 -70.1473Z" fill="url(#paint4_linear)"/>
<path d="M224.821 -43.9368L-351.744 390.536L-345.592 400.839L230.973 -33.6337L224.821 -43.9368Z" fill="url(#paint5_linear)"/>
<path d="M240.47 -17.7269L-336.095 416.746L-329.943 427.049L246.622 -7.4237L240.47 -17.7269Z" fill="url(#paint6_linear)"/>
<path d="M256.128 8.49579L-320.438 442.969L-314.286 453.272L262.279 18.799L256.128 8.49579Z" fill="url(#paint7_linear)"/>
<path d="M271.776 34.7058L-304.789 469.179L-298.637 479.482L277.928 45.0089L271.776 34.7058Z" fill="url(#paint8_linear)"/>
<path d="M287.426 60.9162L-289.139 495.389L-282.987 505.692L293.578 71.2194L287.426 60.9162Z" fill="url(#paint9_linear)"/>
<path d="M303.075 87.1262L-273.49 521.599L-267.338 531.902L309.227 97.4293L303.075 87.1262Z" fill="url(#paint10_linear)"/>
<path d="M318.726 113.337L-257.839 547.81L-251.687 558.113L324.878 123.64L318.726 113.337Z" fill="url(#paint11_linear)"/>
<path d="M334.374 139.547L-242.191 574.02L-236.04 584.323L340.525 149.85L334.374 139.547Z" fill="url(#paint12_linear)"/>
<path d="M350.031 165.769L-226.534 600.242L-220.382 610.545L356.183 176.072L350.031 165.769Z" fill="url(#paint13_linear)"/>
<path d="M365.682 191.98L-210.883 626.453L-204.731 636.756L371.834 202.283L365.682 191.98Z" fill="url(#paint14_linear)"/>
<path d="M381.331 218.19L-195.234 652.663L-189.083 662.966L387.482 228.493L381.331 218.19Z" fill="url(#paint15_linear)"/>
<path d="M396.979 244.4L-179.586 678.873L-173.434 689.176L403.131 254.703L396.979 244.4Z" fill="url(#paint16_linear)"/>
<path d="M412.629 270.61L-163.937 705.083L-157.785 715.386L418.78 280.913L412.629 270.61Z" fill="url(#paint17_linear)"/>
<path d="M428.279 296.82L-148.286 731.292L-142.134 741.596L434.431 307.123L428.279 296.82Z" fill="url(#paint18_linear)"/>
<path d="M443.936 323.043L-132.629 757.516L-126.477 767.819L450.088 333.346L443.936 323.043Z" fill="url(#paint19_linear)"/>
<path d="M459.586 349.252L-116.979 783.725L-110.828 794.028L465.737 359.555L459.586 349.252Z" fill="url(#paint20_linear)"/>
<path d="M475.235 375.463L-101.33 809.936L-95.1783 820.239L481.387 385.766L475.235 375.463Z" fill="url(#paint21_linear)"/>
<path d="M490.884 401.673L-85.6807 836.146L-79.5289 846.449L497.036 411.976L490.884 401.673Z" fill="url(#paint22_linear)"/>
<path d="M506.535 427.883L-70.0303 862.356L-63.8785 872.659L512.687 438.186L506.535 427.883Z" fill="url(#paint23_linear)"/>
</g>
<defs>
<linearGradient id="paint0_linear" x1="-426.922" y1="264.63" x2="189.353" y2="-103.335" gradientUnits="userSpaceOnUse">
<stop offset="0.1429" stop-color="#00E1FF"/>
<stop offset="0.9787" stop-color="#117EFF"/>
</linearGradient>
<linearGradient id="paint1_linear" x1="-411.274" y1="290.838" x2="205.001" y2="-77.1263" gradientUnits="userSpaceOnUse">
<stop offset="0.1429" stop-color="#00E1FF"/>
<stop offset="0.9787" stop-color="#117EFF"/>
</linearGradient>
<linearGradient id="paint2_linear" x1="-395.624" y1="317.051" x2="220.651" y2="-50.9133" gradientUnits="userSpaceOnUse">
<stop offset="0.1429" stop-color="#00E1FF"/>
<stop offset="0.9787" stop-color="#117EFF"/>
</linearGradient>
<linearGradient id="paint3_linear" x1="-379.972" y1="343.264" x2="236.303" y2="-24.701" gradientUnits="userSpaceOnUse">
<stop offset="0.1429" stop-color="#00E1FF"/>
<stop offset="0.9787" stop-color="#117EFF"/>
</linearGradient>
<linearGradient id="paint4_linear" x1="-364.32" y1="369.478" x2="251.955" y2="1.51316" gradientUnits="userSpaceOnUse">
<stop offset="0.1429" stop-color="#00E1FF"/>
<stop offset="0.9787" stop-color="#117EFF"/>
</linearGradient>
<linearGradient id="paint5_linear" x1="-348.668" y1="395.691" x2="267.607" y2="27.726" gradientUnits="userSpaceOnUse">
<stop offset="0.1429" stop-color="#00E1FF"/>
<stop offset="0.9787" stop-color="#117EFF"/>
</linearGradient>
<linearGradient id="paint6_linear" x1="-333.016" y1="421.905" x2="283.258" y2="53.9401" gradientUnits="userSpaceOnUse">
<stop offset="0.1429" stop-color="#00E1FF"/>
<stop offset="0.9787" stop-color="#117EFF"/>
</linearGradient>
<linearGradient id="paint7_linear" x1="-317.368" y1="448.112" x2="298.906" y2="80.1471" gradientUnits="userSpaceOnUse">
<stop offset="0.1429" stop-color="#00E1FF"/>
<stop offset="0.9787" stop-color="#117EFF"/>
</linearGradient>
<linearGradient id="paint8_linear" x1="-301.718" y1="474.324" x2="314.556" y2="106.359" gradientUnits="userSpaceOnUse">
<stop offset="0.1429" stop-color="#00E1FF"/>
<stop offset="0.9787" stop-color="#117EFF"/>
</linearGradient>
<linearGradient id="paint9_linear" x1="-286.066" y1="500.539" x2="330.209" y2="132.574" gradientUnits="userSpaceOnUse">
<stop offset="0.1429" stop-color="#00E1FF"/>
<stop offset="0.9787" stop-color="#117EFF"/>
</linearGradient>
<linearGradient id="paint10_linear" x1="-270.416" y1="526.751" x2="345.859" y2="158.786" gradientUnits="userSpaceOnUse">
<stop offset="0.1429" stop-color="#00E1FF"/>
<stop offset="0.9787" stop-color="#117EFF"/>
</linearGradient>
<linearGradient id="paint11_linear" x1="-254.762" y1="552.966" x2="361.513" y2="185.001" gradientUnits="userSpaceOnUse">
<stop offset="0.1429" stop-color="#00E1FF"/>
<stop offset="0.9787" stop-color="#117EFF"/>
</linearGradient>
<linearGradient id="paint12_linear" x1="-239.113" y1="579.178" x2="377.162" y2="211.213" gradientUnits="userSpaceOnUse">
<stop offset="0.1429" stop-color="#00E1FF"/>
<stop offset="0.9787" stop-color="#117EFF"/>
</linearGradient>
<linearGradient id="paint13_linear" x1="-223.465" y1="605.385" x2="392.81" y2="237.42" gradientUnits="userSpaceOnUse">
<stop offset="0.1429" stop-color="#00E1FF"/>
<stop offset="0.9787" stop-color="#117EFF"/>
</linearGradient>
<linearGradient id="paint14_linear" x1="-207.811" y1="631.6" x2="408.463" y2="263.635" gradientUnits="userSpaceOnUse">
<stop offset="0.1429" stop-color="#00E1FF"/>
<stop offset="0.9787" stop-color="#117EFF"/>
</linearGradient>
<linearGradient id="paint15_linear" x1="-192.161" y1="657.812" x2="424.113" y2="289.847" gradientUnits="userSpaceOnUse">
<stop offset="0.1429" stop-color="#00E1FF"/>
<stop offset="0.9787" stop-color="#117EFF"/>
</linearGradient>
<linearGradient id="paint16_linear" x1="-176.51" y1="684.026" x2="439.764" y2="316.061" gradientUnits="userSpaceOnUse">
<stop offset="0.1429" stop-color="#00E1FF"/>
<stop offset="0.9787" stop-color="#117EFF"/>
</linearGradient>
<linearGradient id="paint17_linear" x1="-160.86" y1="710.238" x2="455.415" y2="342.274" gradientUnits="userSpaceOnUse">
<stop offset="0.1429" stop-color="#00E1FF"/>
<stop offset="0.9787" stop-color="#117EFF"/>
</linearGradient>
<linearGradient id="paint18_linear" x1="-145.208" y1="736.451" x2="471.067" y2="368.486" gradientUnits="userSpaceOnUse">
<stop offset="0.1429" stop-color="#00E1FF"/>
<stop offset="0.9787" stop-color="#117EFF"/>
</linearGradient>
<linearGradient id="paint19_linear" x1="-129.559" y1="762.66" x2="486.716" y2="394.695" gradientUnits="userSpaceOnUse">
<stop offset="0.1429" stop-color="#00E1FF"/>
<stop offset="0.9787" stop-color="#117EFF"/>
</linearGradient>
<linearGradient id="paint20_linear" x1="-113.908" y1="788.872" x2="502.367" y2="420.907" gradientUnits="userSpaceOnUse">
<stop offset="0.1429" stop-color="#00E1FF"/>
<stop offset="0.9787" stop-color="#117EFF"/>
</linearGradient>
<linearGradient id="paint21_linear" x1="-98.2561" y1="815.087" x2="518.019" y2="447.122" gradientUnits="userSpaceOnUse">
<stop offset="0.1429" stop-color="#00E1FF"/>
<stop offset="0.9787" stop-color="#117EFF"/>
</linearGradient>
<linearGradient id="paint22_linear" x1="-82.6053" y1="841.299" x2="533.669" y2="473.334" gradientUnits="userSpaceOnUse">
<stop offset="0.1429" stop-color="#00E1FF"/>
<stop offset="0.9787" stop-color="#117EFF"/>
</linearGradient>
<linearGradient id="paint23_linear" x1="-66.9535" y1="867.512" x2="549.321" y2="499.547" gradientUnits="userSpaceOnUse">
<stop offset="0.1429" stop-color="#00E1FF"/>
<stop offset="0.9787" stop-color="#117EFF"/>
</linearGradient>
</defs>
</svg>
