<svg width="232" height="384" viewBox="0 0 232 384" fill="none" xmlns="http://www.w3.org/2000/svg">
<mask id="mask0" mask-type="alpha" maskUnits="userSpaceOnUse" x="0" y="0" width="232" height="384">
<rect width="232" height="384" fill="black"/>
</mask>
<g mask="url(#mask0)">
<path d="M188.397 -180.531L-388.168 253.942L-382.016 264.245L194.549 -170.228L188.397 -180.531Z" fill="black"/>
<path d="M204.053 -154.307L-372.512 280.166L-366.36 290.469L210.205 -144.004L204.053 -154.307Z" fill="black"/>
<path d="M219.704 -128.097L-356.861 306.376L-350.71 316.679L225.856 -117.794L219.704 -128.097Z" fill="black"/>
<path d="M235.352 -101.887L-341.213 332.586L-335.061 342.889L241.504 -91.5838L235.352 -101.887Z" fill="black"/>
<path d="M251.003 -75.677L-325.562 358.796L-319.411 369.099L257.154 -65.3738L251.003 -75.677Z" fill="black"/>
<path d="M266.65 -49.4671L-309.915 385.006L-303.763 395.309L272.802 -39.1639L266.65 -49.4671Z" fill="black"/>
<path d="M282.3 -23.2561L-294.265 411.217L-288.113 421.52L288.452 -12.9529L282.3 -23.2561Z" fill="black"/>
<path d="M297.958 2.96556L-278.607 437.438L-272.456 447.742L304.109 13.2687L297.958 2.96556Z" fill="black"/>
<path d="M313.608 29.1765L-262.957 463.649L-256.805 473.953L319.76 39.4797L313.608 29.1765Z" fill="black"/>
<path d="M329.256 55.3865L-247.309 489.859L-241.157 500.163L335.408 65.6896L329.256 55.3865Z" fill="black"/>
<path d="M344.907 81.5964L-231.658 516.069L-225.506 526.373L351.059 91.8996L344.907 81.5964Z" fill="black"/>
<path d="M360.556 107.806L-216.009 542.279L-209.857 552.582L366.708 118.11L360.556 107.806Z" fill="black"/>
<path d="M376.206 134.016L-200.359 568.489L-194.208 578.792L382.357 144.32L376.206 134.016Z" fill="black"/>
<path d="M391.862 160.239L-184.703 594.712L-178.551 605.015L398.014 170.542L391.862 160.239Z" fill="black"/>
<path d="M407.512 186.45L-169.053 620.923L-162.901 631.226L413.664 196.753L407.512 186.45Z" fill="black"/>
<path d="M423.162 212.66L-153.403 647.133L-147.252 657.436L429.314 222.963L423.162 212.66Z" fill="black"/>
<path d="M438.81 238.87L-137.755 673.343L-131.603 683.646L444.962 249.173L438.81 238.87Z" fill="black"/>
<path d="M454.46 265.08L-122.105 699.553L-115.954 709.856L460.611 275.383L454.46 265.08Z" fill="black"/>
<path d="M470.109 291.29L-106.456 725.763L-100.304 736.066L476.261 301.593L470.109 291.29Z" fill="black"/>
<path d="M485.766 317.512L-90.7988 751.985L-84.647 762.289L491.918 327.816L485.766 317.512Z" fill="black"/>
<path d="M501.418 343.722L-75.1475 778.195L-68.9957 788.498L507.569 354.026L501.418 343.722Z" fill="black"/>
<path d="M517.066 369.933L-59.499 804.406L-53.3472 814.709L523.218 380.237L517.066 369.933Z" fill="black"/>
</g>
</svg>
