<svg width="56" height="56" viewBox="0 0 56 56" fill="none" xmlns="http://www.w3.org/2000/svg">
<path d="M35.5099 34.0341C38.736 37.3667 43.9666 37.3667 47.1927 34.0341C50.4188 30.7016 50.4188 25.2985 47.1927 21.9659C43.9666 18.6334 38.736 18.6334 35.5099 21.9659L30.4287 27.2147L28.7403 25.4706L33.8215 20.2218C37.9801 15.9261 44.7225 15.9261 48.8811 20.2219C53.0396 24.5176 53.0396 31.4824 48.8811 35.7782C44.7225 40.0739 37.9801 40.0739 33.8215 35.7782L20.4902 21.9659C17.264 18.6333 12.0334 18.6333 8.80731 21.9659C5.58118 25.2984 5.58118 30.7015 8.80731 34.0341C12.0334 37.3666 17.264 37.3666 20.4902 34.0341L25.5531 28.8041L27.2415 30.5482L22.1785 35.7782C18.0199 40.0739 11.2775 40.0739 7.11894 35.7782C2.96035 31.4824 2.96035 24.5176 7.11894 20.2218C11.2775 15.9261 18.0199 15.9261 22.1785 20.2218L35.5099 34.0341Z" fill="black"/>
</svg>
