<svg width="307" height="340" viewBox="0 0 307 340" fill="none" xmlns="http://www.w3.org/2000/svg">
<mask id="path-1-inside-1" fill="white">
<path fill-rule="evenodd" clip-rule="evenodd" d="M197.224 43.5C197.224 44.5202 197.189 45.5323 197.119 46.5349C212.285 51.9273 226.165 60.0349 238.173 70.273C239.015 69.7041 239.883 69.1609 240.777 68.645C261.582 56.6328 288.298 63.9553 300.449 85.0001C312.599 106.045 305.582 132.843 284.777 144.855C283.889 145.368 282.991 145.845 282.084 146.287C283.49 153.978 284.224 161.903 284.224 170C284.224 178.097 283.49 186.022 282.084 193.713C282.991 194.156 283.889 194.633 284.776 195.145C305.582 207.157 312.599 233.955 300.448 255C288.298 276.045 261.582 283.367 240.776 271.355C239.883 270.839 239.015 270.296 238.172 269.727C226.165 279.965 212.285 288.073 197.119 293.465C197.189 294.468 197.224 295.48 197.224 296.5C197.224 320.524 177.525 340 153.224 340C128.924 340 109.224 320.524 109.224 296.5C109.224 295.48 109.26 294.468 109.33 293.465C94.1633 288.073 80.2837 279.965 68.276 269.727C67.4338 270.296 66.5657 270.839 65.6721 271.355C44.8664 283.367 18.1503 276.045 6 255C-6.15026 233.955 0.866381 207.157 21.6721 195.145C22.5595 194.632 23.4577 194.155 24.365 193.713C22.9589 186.022 22.2243 178.097 22.2243 170C22.2243 161.903 22.959 153.978 24.3652 146.287C23.4579 145.844 22.5597 145.367 21.6723 144.855C0.866593 132.843 -6.15005 106.045 6.00022 84.9996C18.1505 63.9548 44.8666 56.6323 65.6723 68.6445C66.566 69.1605 67.4342 69.7037 68.2766 70.2726C80.2841 60.0347 94.1635 51.9272 109.33 46.5349C109.26 45.5323 109.224 44.5202 109.224 43.5C109.224 19.4756 128.924 0 153.224 0C177.525 0 197.224 19.4756 197.224 43.5ZM38.8707 150.415C53.2476 151.865 67.8478 146.018 77.3274 134.341L112.07 154.4C110.231 159.248 109.224 164.507 109.224 170C109.224 175.183 110.121 180.157 111.767 184.775L76.7672 204.982C67.2788 193.756 52.9673 188.163 38.8705 189.584C37.7881 183.218 37.2243 176.675 37.2243 170C37.2243 163.325 37.7881 156.782 38.8707 150.415ZM119.146 197.835L84.3945 217.899C89.7657 231.942 87.5322 247.504 79.0959 259.228C89.1129 267.559 100.555 274.235 113.003 278.837C118.876 265.784 131.06 256.119 145.724 253.629V213.363C135.064 211.533 125.714 205.866 119.146 197.835ZM160.724 213.363V253.629C175.389 256.119 187.572 265.784 193.446 278.837C205.893 274.235 217.335 267.559 227.352 259.228C218.916 247.504 216.683 231.942 222.054 217.899L187.302 197.835C180.735 205.866 171.385 211.533 160.724 213.363ZM194.682 184.775L229.682 204.982C239.17 193.756 253.481 188.163 267.578 189.585C268.661 183.218 269.224 176.675 269.224 170C269.224 163.325 268.661 156.782 267.578 150.416C253.201 151.865 238.601 146.019 229.121 134.341L194.379 154.4C196.218 159.248 197.224 164.507 197.224 170C197.224 175.183 196.328 180.157 194.682 184.775ZM186.739 141.49L221.749 121.277C216.772 107.452 219.081 92.2677 227.353 80.7717C217.336 72.4407 205.894 65.7646 193.446 61.1628C187.572 74.2161 175.389 83.8809 160.724 86.3706V126.637C171.084 128.416 180.206 133.817 186.739 141.49ZM145.724 126.637V86.3706C131.06 83.8809 118.876 74.2161 113.003 61.1628C100.555 65.7645 89.1132 72.4406 79.0964 80.7714C87.368 92.2675 89.6765 107.452 84.7001 121.277L119.709 141.49C126.243 133.817 135.365 128.416 145.724 126.637Z"/>
</mask>
<path fill-rule="evenodd" clip-rule="evenodd" d="M197.224 43.5C197.224 44.5202 197.189 45.5323 197.119 46.5349C212.285 51.9273 226.165 60.0349 238.173 70.273C239.015 69.7041 239.883 69.1609 240.777 68.645C261.582 56.6328 288.298 63.9553 300.449 85.0001C312.599 106.045 305.582 132.843 284.777 144.855C283.889 145.368 282.991 145.845 282.084 146.287C283.49 153.978 284.224 161.903 284.224 170C284.224 178.097 283.49 186.022 282.084 193.713C282.991 194.156 283.889 194.633 284.776 195.145C305.582 207.157 312.599 233.955 300.448 255C288.298 276.045 261.582 283.367 240.776 271.355C239.883 270.839 239.015 270.296 238.172 269.727C226.165 279.965 212.285 288.073 197.119 293.465C197.189 294.468 197.224 295.48 197.224 296.5C197.224 320.524 177.525 340 153.224 340C128.924 340 109.224 320.524 109.224 296.5C109.224 295.48 109.26 294.468 109.33 293.465C94.1633 288.073 80.2837 279.965 68.276 269.727C67.4338 270.296 66.5657 270.839 65.6721 271.355C44.8664 283.367 18.1503 276.045 6 255C-6.15026 233.955 0.866381 207.157 21.6721 195.145C22.5595 194.632 23.4577 194.155 24.365 193.713C22.9589 186.022 22.2243 178.097 22.2243 170C22.2243 161.903 22.959 153.978 24.3652 146.287C23.4579 145.844 22.5597 145.367 21.6723 144.855C0.866593 132.843 -6.15005 106.045 6.00022 84.9996C18.1505 63.9548 44.8666 56.6323 65.6723 68.6445C66.566 69.1605 67.4342 69.7037 68.2766 70.2726C80.2841 60.0347 94.1635 51.9272 109.33 46.5349C109.26 45.5323 109.224 44.5202 109.224 43.5C109.224 19.4756 128.924 0 153.224 0C177.525 0 197.224 19.4756 197.224 43.5ZM38.8707 150.415C53.2476 151.865 67.8478 146.018 77.3274 134.341L112.07 154.4C110.231 159.248 109.224 164.507 109.224 170C109.224 175.183 110.121 180.157 111.767 184.775L76.7672 204.982C67.2788 193.756 52.9673 188.163 38.8705 189.584C37.7881 183.218 37.2243 176.675 37.2243 170C37.2243 163.325 37.7881 156.782 38.8707 150.415ZM119.146 197.835L84.3945 217.899C89.7657 231.942 87.5322 247.504 79.0959 259.228C89.1129 267.559 100.555 274.235 113.003 278.837C118.876 265.784 131.06 256.119 145.724 253.629V213.363C135.064 211.533 125.714 205.866 119.146 197.835ZM160.724 213.363V253.629C175.389 256.119 187.572 265.784 193.446 278.837C205.893 274.235 217.335 267.559 227.352 259.228C218.916 247.504 216.683 231.942 222.054 217.899L187.302 197.835C180.735 205.866 171.385 211.533 160.724 213.363ZM194.682 184.775L229.682 204.982C239.17 193.756 253.481 188.163 267.578 189.585C268.661 183.218 269.224 176.675 269.224 170C269.224 163.325 268.661 156.782 267.578 150.416C253.201 151.865 238.601 146.019 229.121 134.341L194.379 154.4C196.218 159.248 197.224 164.507 197.224 170C197.224 175.183 196.328 180.157 194.682 184.775ZM186.739 141.49L221.749 121.277C216.772 107.452 219.081 92.2677 227.353 80.7717C217.336 72.4407 205.894 65.7646 193.446 61.1628C187.572 74.2161 175.389 83.8809 160.724 86.3706V126.637C171.084 128.416 180.206 133.817 186.739 141.49ZM145.724 126.637V86.3706C131.06 83.8809 118.876 74.2161 113.003 61.1628C100.555 65.7645 89.1132 72.4406 79.0964 80.7714C87.368 92.2675 89.6765 107.452 84.7001 121.277L119.709 141.49C126.243 133.817 135.365 128.416 145.724 126.637Z" fill="white"/>
<path d="M197.119 46.5349L182.155 45.4918L181.363 56.853L192.094 60.6682L197.119 46.5349ZM238.173 70.273L228.44 81.6872L237.118 89.0857L246.568 82.7037L238.173 70.273ZM240.777 68.645L233.277 55.6546L233.277 55.6547L240.777 68.645ZM284.777 144.855L292.276 157.846L292.277 157.846L284.777 144.855ZM282.084 146.287L275.509 132.805L265.282 137.792L267.328 148.985L282.084 146.287ZM282.084 193.713L267.328 191.015L265.282 202.208L275.509 207.196L282.084 193.713ZM284.776 195.145L277.276 208.135L277.276 208.135L284.776 195.145ZM240.776 271.355L248.276 258.365L248.276 258.365L240.776 271.355ZM238.172 269.727L246.567 257.296L237.117 250.915L228.44 258.313L238.172 269.727ZM197.119 293.465L192.094 279.332L181.363 283.147L182.155 294.508L197.119 293.465ZM109.33 293.465L124.293 294.508L125.085 283.147L114.355 279.332L109.33 293.465ZM68.276 269.727L78.0082 258.313L69.331 250.914L59.881 257.296L68.276 269.727ZM65.6721 271.355L73.1721 284.345L73.1722 284.345L65.6721 271.355ZM6 255L-6.99038 262.5L-6.99038 262.5L6 255ZM21.6721 195.145L14.1722 182.154L14.1721 182.154L21.6721 195.145ZM24.365 193.713L30.9393 207.195L41.1669 202.208L39.1204 191.015L24.365 193.713ZM24.3652 146.287L39.1205 148.985L41.1671 137.791L30.9396 132.804L24.3652 146.287ZM21.6723 144.855L14.1723 157.845L14.1724 157.845L21.6723 144.855ZM6.00022 84.9996L-6.99016 77.4996L-6.99016 77.4996L6.00022 84.9996ZM65.6723 68.6445L58.1723 81.6349L58.1724 81.6349L65.6723 68.6445ZM68.2766 70.2726L59.8815 82.7033L69.3315 89.0853L78.0087 81.6869L68.2766 70.2726ZM109.33 46.5349L114.355 60.6682L125.085 56.853L124.293 45.4919L109.33 46.5349ZM77.3274 134.341L84.8274 121.351L73.7461 114.953L65.6816 124.887L77.3274 134.341ZM38.8707 150.415L40.3753 135.491L26.4321 134.085L24.0829 147.901L38.8707 150.415ZM112.07 154.4L126.095 159.719L130.62 147.789L119.57 141.409L112.07 154.4ZM111.767 184.775L119.267 197.766L130.093 191.515L125.896 179.739L111.767 184.775ZM76.7672 204.982L65.311 214.665L73.4064 224.243L84.2672 217.973L76.7672 204.982ZM38.8705 189.584L24.0828 192.098L26.4319 205.914L40.3752 204.508L38.8705 189.584ZM84.3945 217.899L76.8945 204.909L65.8132 211.307L70.3843 223.258L84.3945 217.899ZM119.146 197.835L130.758 188.339L122.687 178.47L111.646 184.845L119.146 197.835ZM79.0959 259.228L66.9202 250.467L58.7526 261.819L69.5043 270.761L79.0959 259.228ZM113.003 278.837L107.801 292.907L120.936 297.762L126.682 284.992L113.003 278.837ZM145.724 253.629L148.235 268.418L160.724 266.297V253.629H145.724ZM145.724 213.363H160.724V200.72L148.263 198.58L145.724 213.363ZM160.724 213.363L158.186 198.58L145.724 200.72V213.363H160.724ZM160.724 253.629H145.724V266.297L158.214 268.418L160.724 253.629ZM193.446 278.837L179.767 284.992L185.513 297.762L198.647 292.907L193.446 278.837ZM227.352 259.228L236.944 270.761L247.696 261.819L239.528 250.468L227.352 259.228ZM222.054 217.899L236.064 223.258L240.636 211.307L229.554 204.909L222.054 217.899ZM187.302 197.835L194.802 184.845L183.762 178.47L175.691 188.339L187.302 197.835ZM229.682 204.982L222.182 217.973L233.042 224.243L241.138 214.665L229.682 204.982ZM194.682 184.775L180.553 179.739L176.356 191.515L187.182 197.766L194.682 184.775ZM267.578 189.585L266.073 204.509L280.017 205.915L282.366 192.099L267.578 189.585ZM267.578 150.416L282.366 147.901L280.017 134.086L266.073 135.491L267.578 150.416ZM229.121 134.341L240.767 124.887L232.703 114.953L221.621 121.351L229.121 134.341ZM194.379 154.4L186.879 141.409L175.829 147.789L180.354 159.719L194.379 154.4ZM221.749 121.277L229.249 134.268L240.109 127.997L235.862 116.197L221.749 121.277ZM186.739 141.49L175.319 151.215L183.419 160.727L194.239 154.48L186.739 141.49ZM227.353 80.7717L239.528 89.5325L247.696 78.1812L236.944 69.2391L227.353 80.7717ZM193.446 61.1628L198.647 47.0935L185.513 42.2378L179.767 55.0078L193.446 61.1628ZM160.724 86.3706L158.214 71.5822L145.724 73.7027V86.3706H160.724ZM160.724 126.637H145.724V139.28L158.186 141.42L160.724 126.637ZM145.724 126.637L148.263 141.42L160.724 139.28V126.637H145.724ZM145.724 86.3706H160.724V73.7027L148.235 71.5822L145.724 86.3706ZM113.003 61.1628L126.682 55.0078L120.936 42.2378L107.801 47.0935L113.003 61.1628ZM79.0964 80.7714L69.5048 69.2388L58.7531 78.1808L66.9206 89.5322L79.0964 80.7714ZM84.7001 121.277L70.5866 116.197L66.3393 127.997L77.2001 134.268L84.7001 121.277ZM119.709 141.49L112.209 154.48L123.03 160.727L131.13 151.215L119.709 141.49ZM212.083 47.5781C212.177 46.2285 212.224 44.8685 212.224 43.5H182.224C182.224 44.1719 182.201 44.836 182.155 45.4918L212.083 47.5781ZM247.905 58.8587C234.531 47.4559 219.062 38.4167 202.144 32.4017L192.094 60.6682C205.509 65.4379 217.799 72.6139 228.44 81.6872L247.905 58.8587ZM233.277 55.6547C232.078 56.3467 230.911 57.0766 229.777 57.8422L246.568 82.7037C247.118 82.3317 247.688 81.9752 248.277 81.6354L233.277 55.6547ZM313.439 77.5001C297.228 49.4212 261.396 39.4197 233.277 55.6546L248.277 81.6354C261.768 73.8459 279.369 78.4893 287.458 92.5001L313.439 77.5001ZM292.277 157.846C320.396 141.611 329.65 105.579 313.439 77.5001L287.458 92.5001C295.547 106.511 290.768 124.075 277.277 131.865L292.277 157.846ZM288.658 159.77C289.879 159.174 291.086 158.533 292.276 157.846L277.277 131.865C276.692 132.202 276.103 132.515 275.509 132.805L288.658 159.77ZM299.224 170C299.224 160.994 298.407 152.166 296.839 143.589L267.328 148.985C268.572 155.79 269.224 162.812 269.224 170H299.224ZM296.839 196.411C298.407 187.834 299.224 179.006 299.224 170H269.224C269.224 177.188 268.572 184.21 267.328 191.015L296.839 196.411ZM292.276 182.155C291.086 181.467 289.879 180.826 288.658 180.231L275.509 207.196C276.103 207.485 276.692 207.798 277.276 208.135L292.276 182.155ZM313.439 262.5C329.65 234.421 320.396 198.39 292.276 182.155L277.276 208.135C290.768 215.925 295.547 233.489 287.458 247.5L313.439 262.5ZM233.276 284.346C261.396 300.581 297.227 290.579 313.439 262.5L287.458 247.5C279.369 261.511 261.768 266.154 248.276 258.365L233.276 284.346ZM229.777 282.158C230.911 282.924 232.078 283.654 233.276 284.346L248.276 258.365C247.688 258.025 247.118 257.669 246.567 257.296L229.777 282.158ZM202.144 307.598C219.062 301.583 234.531 292.544 247.904 281.142L228.44 258.313C217.799 267.386 205.509 274.562 192.094 279.332L202.144 307.598ZM212.224 296.5C212.224 295.131 212.177 293.772 212.083 292.422L182.155 294.508C182.201 295.164 182.224 295.828 182.224 296.5H212.224ZM153.224 355C185.647 355 212.224 328.97 212.224 296.5H182.224C182.224 312.079 169.403 325 153.224 325V355ZM94.2243 296.5C94.2243 328.97 120.802 355 153.224 355V325C137.046 325 124.224 312.079 124.224 296.5H94.2243ZM94.3661 292.422C94.272 293.771 94.2243 295.131 94.2243 296.5H124.224C124.224 295.828 124.248 295.164 124.293 294.508L94.3661 292.422ZM58.5439 281.141C71.9177 292.544 87.3869 301.583 104.305 307.598L114.355 279.332C100.94 274.562 88.6498 267.386 78.0082 258.313L58.5439 281.141ZM73.1722 284.345C74.3706 283.653 75.5373 282.923 76.6711 282.158L59.881 257.296C59.3303 257.668 58.7607 258.025 58.172 258.364L73.1722 284.345ZM-6.99038 262.5C9.22098 290.579 45.0524 300.58 73.1721 284.345L58.1721 258.364C44.6803 266.154 27.0796 261.511 18.9904 247.5L-6.99038 262.5ZM14.1721 182.154C-13.9476 198.389 -23.2017 234.421 -6.99038 262.5L18.9904 247.5C10.9012 233.489 15.6803 215.924 29.1721 208.135L14.1721 182.154ZM17.7907 180.23C16.5693 180.826 15.3624 181.467 14.1722 182.154L29.1721 208.135C29.7566 207.797 30.346 207.484 30.9393 207.195L17.7907 180.23ZM7.22434 170C7.22434 179.006 8.04154 187.834 9.60962 196.41L39.1204 191.015C37.8763 184.21 37.2243 177.188 37.2243 170H7.22434ZM9.60977 143.589C8.04159 152.166 7.22434 160.994 7.22434 170H37.2243C37.2243 162.812 37.8763 155.79 39.1205 148.985L9.60977 143.589ZM14.1724 157.845C15.3627 158.532 16.5696 159.174 17.7907 159.769L30.9396 132.804C30.3461 132.515 29.7567 132.202 29.1723 131.864L14.1724 157.845ZM-6.99016 77.4996C-23.2015 105.579 -13.9474 141.61 14.1723 157.845L29.1723 131.864C15.6806 124.075 10.9014 106.51 18.9906 92.4996L-6.99016 77.4996ZM73.1723 55.6542C45.0526 39.4192 9.2212 49.4207 -6.99016 77.4996L18.9906 92.4996C27.0798 78.4888 44.6806 73.8454 58.1723 81.6349L73.1723 55.6542ZM76.6717 57.8419C75.5379 57.0762 74.3712 56.3463 73.1723 55.6541L58.1724 81.6349C58.7608 81.9747 59.3305 82.3312 59.8815 82.7033L76.6717 57.8419ZM104.305 32.4017C87.3872 38.4166 71.9181 47.4557 58.5445 58.8583L78.0087 81.6869C88.6502 72.6138 100.94 65.4378 114.355 60.6682L104.305 32.4017ZM94.2243 43.5C94.2243 44.8686 94.272 46.2285 94.3661 47.578L124.293 45.4919C124.248 44.836 124.224 44.1719 124.224 43.5H94.2243ZM153.224 -15C120.802 -15 94.2243 11.0302 94.2243 43.5H124.224C124.224 27.921 137.046 15 153.224 15V-15ZM212.224 43.5C212.224 11.0302 185.647 -15 153.224 -15V15C169.403 15 182.224 27.921 182.224 43.5H212.224ZM65.6816 124.887C59.4197 132.601 49.7823 136.439 40.3753 135.491L37.366 165.34C56.7129 167.29 76.2759 159.436 88.9731 143.795L65.6816 124.887ZM119.57 141.409L84.8274 121.351L69.8274 147.331L104.57 167.39L119.57 141.409ZM124.224 170C124.224 166.352 124.891 162.895 126.095 159.719L98.0449 149.08C95.5713 155.602 94.2243 162.661 94.2243 170H124.224ZM125.896 179.739C124.818 176.715 124.224 173.443 124.224 170H94.2243C94.2243 176.923 95.4232 183.6 97.6373 189.811L125.896 179.739ZM84.2672 217.973L119.267 197.766L104.267 171.785L69.2672 191.992L84.2672 217.973ZM40.3752 204.508C49.5974 203.579 59.0441 207.25 65.311 214.665L88.2235 195.3C75.5134 180.261 56.3373 172.747 37.3659 174.66L40.3752 204.508ZM22.2243 170C22.2243 177.521 22.8597 184.905 24.0828 192.098L53.6583 187.07C52.7165 181.531 52.2243 175.829 52.2243 170H22.2243ZM24.0829 147.901C22.8597 155.095 22.2243 162.479 22.2243 170H52.2243C52.2243 164.171 52.7165 158.469 53.6584 152.93L24.0829 147.901ZM91.8945 230.89L126.646 210.826L111.646 184.845L76.8945 204.909L91.8945 230.89ZM91.2716 267.989C102.624 252.211 105.599 231.35 98.4047 212.541L70.3843 223.258C73.9323 232.534 72.4402 242.796 66.9202 250.467L91.2716 267.989ZM118.204 264.768C107.379 260.766 97.417 254.956 88.6875 247.696L69.5043 270.761C80.8088 280.163 93.7311 287.705 107.801 292.907L118.204 264.768ZM143.214 238.841C123.571 242.176 107.228 255.116 99.3237 272.682L126.682 284.992C130.524 276.452 138.549 270.062 148.235 268.418L143.214 238.841ZM130.724 213.363V253.629H160.724V213.363H130.724ZM148.263 198.58C141.275 197.38 135.109 193.66 130.758 188.339L107.535 207.331C116.318 218.072 128.852 225.685 143.186 228.147L148.263 198.58ZM145.724 213.363V253.629H175.724V213.363H145.724ZM158.214 268.418C167.899 270.062 175.924 276.452 179.767 284.992L207.125 272.682C199.221 255.116 182.878 242.176 163.235 238.841L158.214 268.418ZM198.647 292.907C212.717 287.705 225.64 280.163 236.944 270.761L217.761 247.696C209.031 254.956 199.07 260.766 188.245 264.768L198.647 292.907ZM239.528 250.468C234.008 242.796 232.516 232.534 236.064 223.258L208.044 212.54C200.849 231.35 203.824 252.211 215.177 267.989L239.528 250.468ZM229.554 204.909L194.802 184.845L179.802 210.826L214.554 230.89L229.554 204.909ZM175.691 188.339C171.34 193.66 165.173 197.38 158.186 198.58L163.263 228.147C177.597 225.685 190.13 218.072 198.914 207.331L175.691 188.339ZM237.182 191.992L202.182 171.785L187.182 197.766L222.182 217.973L237.182 191.992ZM269.083 174.66C250.112 172.748 230.936 180.262 218.225 195.3L241.138 214.665C247.405 207.251 256.851 203.579 266.073 204.509L269.083 174.66ZM254.224 170C254.224 175.829 253.732 181.531 252.79 187.07L282.366 192.099C283.589 184.905 284.224 177.521 284.224 170H254.224ZM252.79 152.93C253.732 158.469 254.224 164.171 254.224 170H284.224C284.224 162.479 283.589 155.095 282.366 147.901L252.79 152.93ZM217.475 143.795C230.172 159.436 249.736 167.291 269.083 165.34L266.073 135.491C256.666 136.44 247.029 132.601 240.767 124.887L217.475 143.795ZM201.879 167.39L236.621 147.332L221.621 121.351L186.879 141.409L201.879 167.39ZM180.354 159.719C181.558 162.895 182.224 166.352 182.224 170H212.224C212.224 162.661 210.877 155.602 208.404 149.08L180.354 159.719ZM182.224 170C182.224 173.443 181.631 176.715 180.553 179.739L208.811 189.811C211.025 183.6 212.224 176.923 212.224 170H182.224ZM214.249 108.287L179.239 128.5L194.239 154.48L229.249 134.268L214.249 108.287ZM215.177 72.0109C204.045 87.482 200.969 107.838 207.635 126.357L235.862 116.197C232.576 107.066 234.117 97.0533 239.528 89.5325L215.177 72.0109ZM188.245 75.2322C199.07 79.2341 209.032 85.0442 217.761 92.3044L236.944 69.2391C225.64 59.8373 212.717 52.2951 198.647 47.0935L188.245 75.2322ZM163.235 101.159C182.878 97.824 199.221 84.8843 207.125 67.3179L179.767 55.0078C175.924 63.5479 167.899 69.9377 158.214 71.5822L163.235 101.159ZM175.724 126.637V86.3706H145.724V126.637H175.724ZM158.186 141.42C164.976 142.586 170.99 146.131 175.319 151.215L198.16 131.765C189.421 121.502 177.192 114.245 163.263 111.853L158.186 141.42ZM160.724 126.637V86.3706H130.724V126.637H160.724ZM148.235 71.5822C138.549 69.9377 130.524 63.5479 126.682 55.0078L99.3237 67.3179C107.228 84.8843 123.571 97.824 143.214 101.159L148.235 71.5822ZM107.801 47.0935C93.7313 52.295 80.8092 59.8371 69.5048 69.2388L88.6879 92.3041C97.4173 85.0441 107.379 79.234 118.204 75.2322L107.801 47.0935ZM66.9206 89.5322C72.332 97.0531 73.8733 107.066 70.5866 116.197L98.8137 126.357C105.48 107.838 102.404 87.4819 91.2722 72.0107L66.9206 89.5322ZM77.2001 134.268L112.209 154.48L127.209 128.5L92.2001 108.287L77.2001 134.268ZM131.13 151.215C135.458 146.131 141.473 142.586 148.263 141.42L143.186 111.853C129.257 114.245 117.028 121.502 108.289 131.765L131.13 151.215Z" fill="url(#paint0_linear)" mask="url(#path-1-inside-1)"/>
<defs>
<linearGradient id="paint0_linear" x1="282.638" y1="0.37353" x2="9.35443" y2="53.1328" gradientUnits="userSpaceOnUse">
<stop stop-color="#0A8CFF"/>
<stop offset="1" stop-color="#11DCFF"/>
</linearGradient>
</defs>
</svg>
