<svg width="28" height="38" viewBox="0 0 28 38" fill="none" xmlns="http://www.w3.org/2000/svg">
<path d="M27.9766 7.50955C27.9649 7.40244 27.9532 7.29532 27.9181 7.20011C27.9064 7.16441 27.8947 7.11682 27.8713 7.08111C27.8245 6.9621 27.7543 6.86688 27.6607 6.77167C27.649 6.75977 27.649 6.75979 27.649 6.74789L21.2369 0.333228C21.1433 0.238019 21.0263 0.16661 20.9093 0.107105C20.8742 0.0952039 20.8391 0.0833043 20.7923 0.0714033C20.687 0.0357002 20.5934 0.0118945 20.4881 0.0118945C20.4647 0.0118945 20.4413 0 20.4179 0H1.17008C0.526536 0 0 0.535547 0 1.1901V36.8099C0 37.4645 0.526536 38 1.17008 38H26.8299C27.4735 38 28 37.4645 28 36.8099V7.59285C28 7.55715 27.9883 7.53335 27.9766 7.50955ZM21.5763 4.01064L23.9749 6.40275H21.5763V4.01064ZM25.6598 35.6079H2.32845V2.3564H19.2478V7.58095C19.2478 8.23551 19.7743 8.77106 20.4179 8.77106H25.6715V35.6079H25.6598ZM22.3719 19.1845H6.21312C5.56958 19.1845 5.04304 19.72 5.04304 20.3746C5.04304 21.0291 5.56958 21.5647 6.21312 21.5647H22.3836C23.0272 21.5647 23.5537 21.0291 23.5537 20.3746C23.542 19.72 23.0155 19.1845 22.3719 19.1845ZM5.04304 15.388C5.04304 16.0426 5.56958 16.5781 6.21312 16.5781H22.3836C23.0272 16.5781 23.5537 16.0426 23.5537 15.388C23.5537 14.7335 23.0272 14.1979 22.3836 14.1979H6.21312C5.56958 14.1979 5.04304 14.7335 5.04304 15.388ZM22.3719 24.171H6.21312C5.56958 24.171 5.04304 24.7065 5.04304 25.3611C5.04304 26.0157 5.56958 26.5512 6.21312 26.5512H22.3836C23.0272 26.5512 23.5537 26.0157 23.5537 25.3611C23.542 24.7065 23.0155 24.171 22.3719 24.171ZM22.3719 29.1575H6.21312C5.56958 29.1575 5.04304 29.6931 5.04304 30.3476C5.04304 31.0022 5.56958 31.5377 6.21312 31.5377H22.3836C23.0272 31.5377 23.5537 31.0022 23.5537 30.3476C23.542 29.6931 23.0155 29.1575 22.3719 29.1575Z" fill="url(#paint0_linear)"/>
<defs>
<linearGradient id="paint0_linear" x1="25.8275" y1="0.0417475" x2="0.550393" y2="4.03218" gradientUnits="userSpaceOnUse">
<stop stop-color="#0A8CFF"/>
<stop offset="1" stop-color="#11DCFF"/>
</linearGradient>
</defs>
</svg>
