<svg width="38" height="38" viewBox="0 0 38 38" fill="none" xmlns="http://www.w3.org/2000/svg">
<path d="M6.27996 26.9359H1.18713C0.534208 26.9359 0 27.4702 0 28.1231V36.8129C0 37.4658 0.534208 38 1.18713 38H6.27996C6.93288 38 7.46709 37.4658 7.46709 36.8129V28.1231C7.46709 27.4583 6.94475 26.9359 6.27996 26.9359ZM5.09283 35.6139H2.37426V29.3102H5.09283V35.6139ZM16.4655 11.1115H11.3727C10.7198 11.1115 10.1856 11.6457 10.1856 12.2987V36.801C10.1856 37.4539 10.7198 37.9881 11.3727 37.9881H16.4655C17.1184 37.9881 17.6526 37.4539 17.6526 36.801V12.2987C17.6526 11.6457 17.1184 11.1115 16.4655 11.1115ZM15.2783 35.6139H12.5598V13.4858H15.2783V35.6139ZM26.6392 19.2315H21.5464C20.8935 19.2315 20.3593 19.7657 20.3593 20.4186V36.801C20.3593 37.4539 20.8935 37.9881 21.5464 37.9881H26.6392C27.2921 37.9881 27.8263 37.4539 27.8263 36.801V20.4186C27.8263 19.7657 27.2921 19.2315 26.6392 19.2315ZM25.452 35.6139H22.7335V21.6058H25.452V35.6139ZM36.8129 0H31.7201C31.0672 0 30.533 0.534208 30.533 1.18713V36.801C30.533 37.4539 31.0672 37.9881 31.7201 37.9881H36.8129C37.4658 37.9881 38 37.4539 38 36.801V1.18713C38 0.534208 37.4658 0 36.8129 0ZM35.6257 35.6139H32.9072V2.37426H35.6257V35.6139Z" fill="url(#paint0_linear)"/>
<defs>
<linearGradient id="paint0_linear" x1="35.0516" y1="0.0417475" x2="1.4351" y2="7.24404" gradientUnits="userSpaceOnUse">
<stop stop-color="#0A8CFF"/>
<stop offset="1" stop-color="#11DCFF"/>
</linearGradient>
</defs>
</svg>
