<svg width="38" height="38" viewBox="0 0 38 38" fill="none" xmlns="http://www.w3.org/2000/svg">
<path d="M16.5181 0H1.1875C0.534375 0 0 0.534542 0 1.18787V16.5233C0 17.1766 0.534375 17.7112 1.1875 17.7112H16.5181C17.1713 17.7112 17.7056 17.1766 17.7056 16.5233V1.18787C17.7056 0.522663 17.1831 0 16.5181 0ZM15.3306 15.3354H2.375V2.37574H15.3306V15.3354ZM36.8125 0H21.4819C20.8287 0 20.2944 0.534542 20.2944 1.18787V16.5233C20.2944 17.1766 20.8287 17.7112 21.4819 17.7112H36.8125C37.4656 17.7112 38 17.1766 38 16.5233V1.18787C38 0.522663 37.4656 0 36.8125 0ZM35.625 15.3354H22.6694V2.37574H35.625V15.3354ZM16.5181 20.2888H1.1875C0.534375 20.2888 0 20.8234 0 21.4767V36.8121C0 37.4655 0.534375 38 1.1875 38H16.5181C17.1713 38 17.7056 37.4655 17.7056 36.8121V21.4767C17.7056 20.8234 17.1831 20.2888 16.5181 20.2888ZM15.3306 35.6361H2.375V22.6765H15.3306V35.6361ZM36.8125 20.2888H21.4819C20.8287 20.2888 20.2944 20.8234 20.2944 21.4767V36.8121C20.2944 37.4655 20.8287 38 21.4819 38H36.8125C37.4656 38 38 37.4655 38 36.8121V21.4767C38 20.8234 37.4656 20.2888 36.8125 20.2888ZM35.625 35.6361H22.6694V22.6765H35.625V35.6361Z" fill="url(#paint0_linear)"/>
<defs>
<linearGradient id="paint0_linear" x1="35.0516" y1="0.0417475" x2="1.4351" y2="7.24404" gradientUnits="userSpaceOnUse">
<stop stop-color="#0A8CFF"/>
<stop offset="1" stop-color="#11DCFF"/>
</linearGradient>
</defs>
</svg>
