<svg width="38" height="38" viewBox="0 0 38 38" fill="none" xmlns="http://www.w3.org/2000/svg">
<path d="M36.8125 8.64769C37.4656 8.64769 38 8.11315 38 7.45982V1.18787C38 0.534542 37.4656 0 36.8125 0H30.5306C29.8775 0 29.3431 0.534542 29.3431 1.18787V3.136H8.645V1.18787C8.645 0.534542 8.11062 0 7.4575 0H1.1875C0.534375 0 0 0.534542 0 1.18787V7.45982C0 8.11315 0.534375 8.64769 1.1875 8.64769H3.135V29.3523H1.1875C0.534375 29.3523 0 29.8868 0 30.5401V36.8121C0 37.4655 0.534375 38 1.1875 38H7.4575C8.11062 38 8.645 37.4655 8.645 36.8121V34.864H29.3431V36.8121C29.3431 37.4655 29.8775 38 30.5306 38H36.8125C37.4656 38 38 37.4655 38 36.8121V30.5401C38 29.8868 37.4656 29.3523 36.8125 29.3523H34.865V8.64769H36.8125ZM31.7181 2.36389H35.625V6.2601H31.7181V2.36389ZM2.375 2.36389H6.27V4.31198V6.2601H2.375V2.36389ZM2.375 35.6243V31.728H6.27V33.6761V35.6243H2.375ZM35.625 35.6243H31.7181V31.728H35.625V35.6243ZM32.49 29.3523H30.5425C29.8894 29.3523 29.355 29.8868 29.355 30.5401V32.4883H8.645V30.5401C8.645 29.8868 8.11062 29.3523 7.4575 29.3523H5.51V8.64769H7.4575C8.11062 8.64769 8.645 8.11315 8.645 7.45982V5.51174H29.3431V7.45982C29.3431 8.11315 29.8775 8.64769 30.5306 8.64769H32.4781V29.3523H32.49Z" fill="url(#paint0_linear)"/>
<defs>
<linearGradient id="paint0_linear" x1="35.0516" y1="0.0417475" x2="1.4351" y2="7.24404" gradientUnits="userSpaceOnUse">
<stop stop-color="#0A8CFF"/>
<stop offset="1" stop-color="#11DCFF"/>
</linearGradient>
</defs>
</svg>
