<svg width="43" height="22" viewBox="0 0 43 22" fill="none" xmlns="http://www.w3.org/2000/svg">
<path d="M39.5619 0C37.6638 0 36.1119 1.58799 36.1119 3.53024C36.1119 4.00664 36.2074 4.45865 36.3745 4.86175L26.1796 14.5852C25.6305 14.2065 24.9739 13.9867 24.2695 13.9867C23.9114 13.9867 23.5652 14.0477 23.231 14.1577L19.972 9.95557C20.2107 9.46695 20.354 8.92947 20.354 8.35535C20.354 6.4131 18.814 4.82511 16.9039 4.82511C14.9939 4.82511 13.4539 6.4131 13.4539 8.35535C13.4539 8.53858 13.4897 8.70959 13.5136 8.8806L5.28845 15.4892C4.75125 15.1471 4.13043 14.9395 3.44998 14.9395C1.55186 14.9395 0 16.5275 0 18.4697C0 20.412 1.53992 22 3.44998 22C5.34809 22 6.88808 20.412 6.88808 18.4697C6.88808 18.1155 6.81643 17.7734 6.72093 17.4436L14.6716 11.0549C14.6954 11.0672 14.7074 11.1038 14.7312 11.116C15.3401 11.6169 16.1041 11.8978 16.892 11.8978C17.3456 11.8978 17.7874 11.8123 18.2052 11.6291L21.3448 15.6724C21.0105 16.2221 20.8076 16.8451 20.8076 17.5169C20.8076 19.4592 22.3475 21.0472 24.2576 21.0472C26.1676 21.0472 27.7076 19.4592 27.7076 17.5169C27.7076 17.1993 27.648 16.8817 27.5763 16.5885L37.998 6.65742C38.4756 6.90173 38.9889 7.06052 39.5619 7.06052C41.46 7.06052 43 5.47249 43 3.53024C43 1.57577 41.46 0 39.5619 0ZM3.47388 19.5447C2.88892 19.5447 2.41139 19.0561 2.41139 18.4575C2.41139 17.8589 2.88892 17.3703 3.47388 17.3703C4.05883 17.3703 4.53636 17.8589 4.53636 18.4575C4.52442 19.0561 4.04689 19.5447 3.47388 19.5447ZM16.2474 9.19822C15.9967 8.99055 15.8534 8.68517 15.8534 8.35535C15.8534 7.75679 16.3309 7.2682 16.9159 7.2682C17.5008 7.2682 17.9784 7.75679 17.9784 8.35535C17.9784 8.64852 17.8709 8.91727 17.668 9.12493C17.2501 9.55247 16.51 9.40588 16.2474 9.19822ZM24.2695 18.6041C23.6846 18.6041 23.2071 18.1155 23.2071 17.5169C23.2071 17.1749 23.3623 16.8695 23.6249 16.6618C23.6249 16.6618 23.6369 16.6619 23.6369 16.6496C23.7682 16.5519 23.9711 16.442 24.2695 16.442C24.8545 16.442 25.332 16.9306 25.332 17.5291C25.332 18.1155 24.8545 18.6041 24.2695 18.6041ZM39.5619 4.6052C38.9769 4.6052 38.4995 4.11661 38.4995 3.51805C38.4995 2.91949 38.9769 2.43086 39.5619 2.43086C40.1469 2.43086 40.6244 2.91949 40.6244 3.51805C40.6124 4.12882 40.1349 4.6052 39.5619 4.6052Z" fill="url(#paint0_linear)"/>
<defs>
<linearGradient id="paint0_linear" x1="39.6636" y1="0.0241696" x2="5.81371" y2="14.1991" gradientUnits="userSpaceOnUse">
<stop stop-color="#0A8CFF"/>
<stop offset="1" stop-color="#11DCFF"/>
</linearGradient>
</defs>
</svg>
